<?xml version="1.0" standalone="no"?><!-- Generator: Gravit.io --><svg xmlns="http://www.w3.org/2000/svg" xmlns:xlink="http://www.w3.org/1999/xlink" style="isolation:isolate" viewBox="760 160 70 151" width="70" height="151"><g id="Group"><path d=" M 760 160 L 830 160 C 830 179.593 814.317 195.5 795 195.5 C 775.683 195.5 760 179.593 760 160 Z " fill="rgb(255,183,183)"/><path d=" M 830 311 L 760 311 C 760 291.407 775.683 275.5 795 275.5 C 814.317 275.5 830 291.407 830 311 Z " fill="rgb(255,183,183)"/><path d="M 795 185.5 L 795 185.5 C 814.317 185.5 830 201.183 830 220.5 L 830 250.5 C 830 269.817 814.317 285.5 795 285.5 L 795 285.5 C 775.683 285.5 760 269.817 760 250.5 L 760 220.5 C 760 201.183 775.683 185.5 795 185.5 Z" style="stroke:none;fill:#FFB7B7;stroke-miterlimit:10;"/><g style="mix-blend-mode:normal;" opacity="0.42"><path d="M 778 231.571 L 778 231.571 C 772.481 231.571 768 227.091 768 221.571 L 768 213 C 768 207.481 772.481 203 778 203 L 778 203 C 783.519 203 788 207.481 788 213 L 788 221.571 C 788 227.091 783.519 231.571 778 231.571 Z" style="stroke:none;fill:#FFFFFF;stroke-miterlimit:10;"/></g></g></svg>